<svg width="1440" height="236" viewBox="0 0 1440 236" fill="none" xmlns="http://www.w3.org/2000/svg">
<rect x="358" y="82" width="1082" height="67" fill="url(#paint0_linear_0_1)"/>
<rect y="82" width="768" height="67" fill="url(#paint1_linear_0_1)"/>
<rect x="79" y="82.3906" width="2.26829" height="67.0296" fill="white"/>
<rect x="248" y="82.3906" width="2.2439" height="67.0296" fill="white"/>
<rect x="487" y="82.3906" width="2.2439" height="67.0296" fill="white"/>
<rect x="768" y="82.3906" width="2.26829" height="67.0296" fill="white"/>
<rect x="1082" y="82.3906" width="2.2439" height="67.0296" fill="white"/>
<path d="M88.1484 42.8672C89.7031 42.8672 90.9844 43.0547 91.9922 43.4297C93.0078 43.8047 93.7617 44.3711 94.2539 45.1289C94.7461 45.8867 94.9922 46.8438 94.9922 48C94.9922 48.7812 94.8438 49.4648 94.5469 50.0508C94.25 50.6367 93.8594 51.1328 93.375 51.5391C92.8906 51.9453 92.3672 52.2773 91.8047 52.5352L96.8438 60H92.8125L88.7227 53.4258H86.7891V60H83.1562V42.8672H88.1484ZM87.8906 45.8438H86.7891V50.4727H87.9609C89.1641 50.4727 90.0234 50.2734 90.5391 49.875C91.0625 49.4688 91.3242 48.875 91.3242 48.0938C91.3242 47.2812 91.043 46.7031 90.4805 46.3594C89.9258 46.0156 89.0625 45.8438 87.8906 45.8438ZM104.121 46.6523C105.332 46.6523 106.375 46.8867 107.25 47.3555C108.125 47.8164 108.801 48.4883 109.277 49.3711C109.754 50.2539 109.992 51.332 109.992 52.6055V54.3398H101.543C101.582 55.3477 101.883 56.1406 102.445 56.7188C103.016 57.2891 103.805 57.5742 104.812 57.5742C105.648 57.5742 106.414 57.4883 107.109 57.3164C107.805 57.1445 108.52 56.8867 109.254 56.543V59.3086C108.605 59.6289 107.926 59.8633 107.215 60.0117C106.512 60.1602 105.656 60.2344 104.648 60.2344C103.336 60.2344 102.172 59.9922 101.156 59.5078C100.148 59.0234 99.3555 58.2852 98.7773 57.293C98.207 56.3008 97.9219 55.0508 97.9219 53.543C97.9219 52.0117 98.1797 50.7383 98.6953 49.7227C99.2188 48.6992 99.9453 47.9336 100.875 47.4258C101.805 46.9102 102.887 46.6523 104.121 46.6523ZM104.145 49.1953C103.449 49.1953 102.871 49.418 102.41 49.8633C101.957 50.3086 101.695 51.0078 101.625 51.9609H106.641C106.633 51.4297 106.535 50.957 106.348 50.543C106.168 50.1289 105.895 49.8008 105.527 49.5586C105.168 49.3164 104.707 49.1953 104.145 49.1953ZM116.73 65.7656C114.902 65.7656 113.504 65.4453 112.535 64.8047C111.574 64.1719 111.094 63.2812 111.094 62.1328C111.094 61.3438 111.34 60.6836 111.832 60.1523C112.324 59.6211 113.047 59.2422 114 59.0156C113.633 58.8594 113.312 58.6055 113.039 58.2539C112.766 57.8945 112.629 57.5156 112.629 57.1172C112.629 56.6172 112.773 56.2031 113.062 55.875C113.352 55.5391 113.77 55.2109 114.316 54.8906C113.629 54.5938 113.082 54.1172 112.676 53.4609C112.277 52.8047 112.078 52.0312 112.078 51.1406C112.078 50.1875 112.285 49.3789 112.699 48.7148C113.121 48.043 113.73 47.5312 114.527 47.1797C115.332 46.8281 116.309 46.6523 117.457 46.6523C117.699 46.6523 117.98 46.668 118.301 46.6992C118.621 46.7305 118.914 46.7656 119.18 46.8047C119.453 46.8438 119.637 46.875 119.73 46.8984H124.301V48.7148L122.25 49.2422C122.438 49.5312 122.578 49.8398 122.672 50.168C122.766 50.4961 122.812 50.8438 122.812 51.2109C122.812 52.6172 122.32 53.7148 121.336 54.5039C120.359 55.2852 119 55.6758 117.258 55.6758C116.844 55.6523 116.453 55.6211 116.086 55.582C115.906 55.7227 115.77 55.8711 115.676 56.0273C115.582 56.1836 115.535 56.3477 115.535 56.5195C115.535 56.6914 115.605 56.8359 115.746 56.9531C115.895 57.0625 116.113 57.1484 116.402 57.2109C116.699 57.2656 117.066 57.293 117.504 57.293H119.73C121.168 57.293 122.262 57.6016 123.012 58.2188C123.77 58.8359 124.148 59.7422 124.148 60.9375C124.148 62.4688 123.508 63.6562 122.227 64.5C120.953 65.3438 119.121 65.7656 116.73 65.7656ZM116.883 63.4336C117.734 63.4336 118.465 63.3516 119.074 63.1875C119.691 63.0312 120.164 62.8047 120.492 62.5078C120.82 62.2188 120.984 61.8711 120.984 61.4648C120.984 61.1367 120.887 60.875 120.691 60.6797C120.504 60.4922 120.215 60.3594 119.824 60.2812C119.441 60.2031 118.949 60.1641 118.348 60.1641H116.496C116.059 60.1641 115.664 60.2344 115.312 60.375C114.969 60.5156 114.695 60.7109 114.492 60.9609C114.289 61.2188 114.188 61.5156 114.188 61.8516C114.188 62.3438 114.422 62.7305 114.891 63.0117C115.367 63.293 116.031 63.4336 116.883 63.4336ZM117.457 53.4961C118.129 53.4961 118.621 53.2891 118.934 52.875C119.246 52.4609 119.402 51.8984 119.402 51.1875C119.402 50.3984 119.238 49.8086 118.91 49.418C118.59 49.0195 118.105 48.8203 117.457 48.8203C116.801 48.8203 116.309 49.0195 115.98 49.418C115.652 49.8086 115.488 50.3984 115.488 51.1875C115.488 51.8984 115.648 52.4609 115.969 52.875C116.297 53.2891 116.793 53.4961 117.457 53.4961ZM130.043 46.8984V60H126.469V46.8984H130.043ZM128.262 41.7656C128.793 41.7656 129.25 41.8906 129.633 42.1406C130.016 42.3828 130.207 42.8398 130.207 43.5117C130.207 44.1758 130.016 44.6367 129.633 44.8945C129.25 45.1445 128.793 45.2695 128.262 45.2695C127.723 45.2695 127.262 45.1445 126.879 44.8945C126.504 44.6367 126.316 44.1758 126.316 43.5117C126.316 42.8398 126.504 42.3828 126.879 42.1406C127.262 41.8906 127.723 41.7656 128.262 41.7656ZM142.945 56.1094C142.945 57 142.734 57.7539 142.312 58.3711C141.898 58.9805 141.277 59.4453 140.449 59.7656C139.621 60.0781 138.59 60.2344 137.355 60.2344C136.441 60.2344 135.656 60.1758 135 60.0586C134.352 59.9414 133.695 59.7461 133.031 59.4727V56.5195C133.742 56.8398 134.504 57.1055 135.316 57.3164C136.137 57.5195 136.855 57.6211 137.473 57.6211C138.168 57.6211 138.664 57.5195 138.961 57.3164C139.266 57.1055 139.418 56.832 139.418 56.4961C139.418 56.2773 139.355 56.082 139.23 55.9102C139.113 55.7305 138.855 55.5312 138.457 55.3125C138.059 55.0859 137.434 54.793 136.582 54.4336C135.762 54.0898 135.086 53.7422 134.555 53.3906C134.031 53.0391 133.641 52.625 133.383 52.1484C133.133 51.6641 133.008 51.0508 133.008 50.3086C133.008 49.0977 133.477 48.1875 134.414 47.5781C135.359 46.9609 136.621 46.6523 138.199 46.6523C139.012 46.6523 139.785 46.7344 140.52 46.8984C141.262 47.0625 142.023 47.3242 142.805 47.6836L141.727 50.2617C141.078 49.9805 140.465 49.75 139.887 49.5703C139.316 49.3906 138.734 49.3008 138.141 49.3008C137.617 49.3008 137.223 49.3711 136.957 49.5117C136.691 49.6523 136.559 49.8672 136.559 50.1562C136.559 50.3672 136.625 50.5547 136.758 50.7188C136.898 50.8828 137.164 51.0664 137.555 51.2695C137.953 51.4648 138.535 51.7188 139.301 52.0312C140.043 52.3359 140.688 52.6562 141.234 52.9922C141.781 53.3203 142.203 53.7305 142.5 54.2227C142.797 54.707 142.945 55.3359 142.945 56.1094ZM151.254 57.3867C151.645 57.3867 152.023 57.3477 152.391 57.2695C152.766 57.1914 153.137 57.0938 153.504 56.9766V59.6367C153.121 59.8086 152.645 59.9492 152.074 60.0586C151.512 60.1758 150.895 60.2344 150.223 60.2344C149.441 60.2344 148.738 60.1094 148.113 59.8594C147.496 59.6016 147.008 59.1602 146.648 58.5352C146.297 57.9023 146.121 57.0234 146.121 55.8984V49.582H144.41V48.0703L146.379 46.875L147.41 44.1094H149.695V46.8984H153.363V49.582H149.695V55.8984C149.695 56.3984 149.836 56.7734 150.117 57.0234C150.406 57.2656 150.785 57.3867 151.254 57.3867ZM163.477 46.6523C163.656 46.6523 163.863 46.6641 164.098 46.6875C164.34 46.7031 164.535 46.7266 164.684 46.7578L164.414 50.1094C164.297 50.0703 164.129 50.043 163.91 50.0273C163.699 50.0039 163.516 49.9922 163.359 49.9922C162.898 49.9922 162.449 50.0508 162.012 50.168C161.582 50.2852 161.195 50.4766 160.852 50.7422C160.508 51 160.234 51.3438 160.031 51.7734C159.836 52.1953 159.738 52.7148 159.738 53.332V60H156.164V46.8984H158.871L159.398 49.1016H159.574C159.832 48.6562 160.152 48.25 160.535 47.8828C160.926 47.5078 161.367 47.2109 161.859 46.9922C162.359 46.7656 162.898 46.6523 163.477 46.6523ZM172.43 46.6289C174.188 46.6289 175.535 47.0117 176.473 47.7773C177.41 48.543 177.879 49.707 177.879 51.2695V60H175.383L174.691 58.2188H174.598C174.223 58.6875 173.84 59.0703 173.449 59.3672C173.059 59.6641 172.609 59.8828 172.102 60.0234C171.594 60.1641 170.977 60.2344 170.25 60.2344C169.477 60.2344 168.781 60.0859 168.164 59.7891C167.555 59.4922 167.074 59.0391 166.723 58.4297C166.371 57.8125 166.195 57.0312 166.195 56.0859C166.195 54.6953 166.684 53.6719 167.66 53.0156C168.637 52.3516 170.102 51.9844 172.055 51.9141L174.328 51.8438V51.2695C174.328 50.582 174.148 50.0781 173.789 49.7578C173.43 49.4375 172.93 49.2773 172.289 49.2773C171.656 49.2773 171.035 49.3672 170.426 49.5469C169.816 49.7266 169.207 49.9531 168.598 50.2266L167.414 47.8125C168.109 47.4453 168.887 47.1562 169.746 46.9453C170.613 46.7344 171.508 46.6289 172.43 46.6289ZM174.328 53.9297L172.945 53.9766C171.789 54.0078 170.984 54.2148 170.531 54.5977C170.086 54.9805 169.863 55.4844 169.863 56.1094C169.863 56.6562 170.023 57.0469 170.344 57.2812C170.664 57.5078 171.082 57.6211 171.598 57.6211C172.363 57.6211 173.008 57.3945 173.531 56.9414C174.062 56.4883 174.328 55.8438 174.328 55.0078V53.9297ZM187.09 57.3867C187.48 57.3867 187.859 57.3477 188.227 57.2695C188.602 57.1914 188.973 57.0938 189.34 56.9766V59.6367C188.957 59.8086 188.48 59.9492 187.91 60.0586C187.348 60.1758 186.73 60.2344 186.059 60.2344C185.277 60.2344 184.574 60.1094 183.949 59.8594C183.332 59.6016 182.844 59.1602 182.484 58.5352C182.133 57.9023 181.957 57.0234 181.957 55.8984V49.582H180.246V48.0703L182.215 46.875L183.246 44.1094H185.531V46.8984H189.199V49.582H185.531V55.8984C185.531 56.3984 185.672 56.7734 185.953 57.0234C186.242 57.2656 186.621 57.3867 187.09 57.3867ZM195.574 46.8984V60H192V46.8984H195.574ZM193.793 41.7656C194.324 41.7656 194.781 41.8906 195.164 42.1406C195.547 42.3828 195.738 42.8398 195.738 43.5117C195.738 44.1758 195.547 44.6367 195.164 44.8945C194.781 45.1445 194.324 45.2695 193.793 45.2695C193.254 45.2695 192.793 45.1445 192.41 44.8945C192.035 44.6367 191.848 44.1758 191.848 43.5117C191.848 42.8398 192.035 42.3828 192.41 42.1406C192.793 41.8906 193.254 41.7656 193.793 41.7656ZM211.242 53.4258C211.242 54.5195 211.094 55.4883 210.797 56.332C210.508 57.1758 210.082 57.8906 209.52 58.4766C208.965 59.0547 208.293 59.4922 207.504 59.7891C206.723 60.0859 205.84 60.2344 204.855 60.2344C203.934 60.2344 203.086 60.0859 202.312 59.7891C201.547 59.4922 200.879 59.0547 200.309 58.4766C199.746 57.8906 199.309 57.1758 198.996 56.332C198.691 55.4883 198.539 54.5195 198.539 53.4258C198.539 51.9727 198.797 50.7422 199.312 49.7344C199.828 48.7266 200.562 47.9609 201.516 47.4375C202.469 46.9141 203.605 46.6523 204.926 46.6523C206.152 46.6523 207.238 46.9141 208.184 47.4375C209.137 47.9609 209.883 48.7266 210.422 49.7344C210.969 50.7422 211.242 51.9727 211.242 53.4258ZM202.184 53.4258C202.184 54.2852 202.277 55.0078 202.465 55.5938C202.652 56.1797 202.945 56.6211 203.344 56.918C203.742 57.2148 204.262 57.3633 204.902 57.3633C205.535 57.3633 206.047 57.2148 206.438 56.918C206.836 56.6211 207.125 56.1797 207.305 55.5938C207.492 55.0078 207.586 54.2852 207.586 53.4258C207.586 52.5586 207.492 51.8398 207.305 51.2695C207.125 50.6914 206.836 50.2578 206.438 49.9688C206.039 49.6797 205.52 49.5352 204.879 49.5352C203.934 49.5352 203.246 49.8594 202.816 50.5078C202.395 51.1562 202.184 52.1289 202.184 53.4258ZM221.637 46.6523C223.035 46.6523 224.16 47.0352 225.012 47.8008C225.863 48.5586 226.289 49.7773 226.289 51.457V60H222.715V52.3477C222.715 51.4102 222.543 50.7031 222.199 50.2266C221.863 49.75 221.332 49.5117 220.605 49.5117C219.512 49.5117 218.766 49.8828 218.367 50.625C217.969 51.3672 217.77 52.4375 217.77 53.8359V60H214.195V46.8984H216.926L217.406 48.5742H217.605C217.887 48.1211 218.234 47.7539 218.648 47.4727C219.07 47.1914 219.535 46.9844 220.043 46.8516C220.559 46.7188 221.09 46.6523 221.637 46.6523ZM246.598 55.2422C246.598 56.2578 246.352 57.1406 245.859 57.8906C245.367 58.6406 244.648 59.2188 243.703 59.625C242.766 60.0312 241.625 60.2344 240.281 60.2344C239.688 60.2344 239.105 60.1953 238.535 60.1172C237.973 60.0391 237.43 59.9258 236.906 59.7773C236.391 59.6211 235.898 59.4297 235.43 59.2031V55.8281C236.242 56.1875 237.086 56.5117 237.961 56.8008C238.836 57.0898 239.703 57.2344 240.562 57.2344C241.156 57.2344 241.633 57.1562 241.992 57C242.359 56.8438 242.625 56.6289 242.789 56.3555C242.953 56.082 243.035 55.7695 243.035 55.418C243.035 54.9883 242.891 54.6211 242.602 54.3164C242.312 54.0117 241.914 53.7266 241.406 53.4609C240.906 53.1953 240.34 52.9102 239.707 52.6055C239.309 52.418 238.875 52.1914 238.406 51.9258C237.938 51.6523 237.492 51.3203 237.07 50.9297C236.648 50.5391 236.301 50.0664 236.027 49.5117C235.762 48.9492 235.629 48.2773 235.629 47.4961C235.629 46.4727 235.863 45.5977 236.332 44.8711C236.801 44.1445 237.469 43.5898 238.336 43.207C239.211 42.8164 240.242 42.6211 241.43 42.6211C242.32 42.6211 243.168 42.7266 243.973 42.9375C244.785 43.1406 245.633 43.4375 246.516 43.8281L245.344 46.6523C244.555 46.332 243.848 46.0859 243.223 45.9141C242.598 45.7344 241.961 45.6445 241.312 45.6445C240.859 45.6445 240.473 45.7188 240.152 45.8672C239.832 46.0078 239.59 46.2109 239.426 46.4766C239.262 46.7344 239.18 47.0352 239.18 47.3789C239.18 47.7852 239.297 48.1289 239.531 48.4102C239.773 48.6836 240.133 48.9492 240.609 49.207C241.094 49.4648 241.695 49.7656 242.414 50.1094C243.289 50.5234 244.035 50.957 244.652 51.4102C245.277 51.8555 245.758 52.3828 246.094 52.9922C246.43 53.5938 246.598 54.3438 246.598 55.2422ZM254.941 57.3867C255.332 57.3867 255.711 57.3477 256.078 57.2695C256.453 57.1914 256.824 57.0938 257.191 56.9766V59.6367C256.809 59.8086 256.332 59.9492 255.762 60.0586C255.199 60.1758 254.582 60.2344 253.91 60.2344C253.129 60.2344 252.426 60.1094 251.801 59.8594C251.184 59.6016 250.695 59.1602 250.336 58.5352C249.984 57.9023 249.809 57.0234 249.809 55.8984V49.582H248.098V48.0703L250.066 46.875L251.098 44.1094H253.383V46.8984H257.051V49.582H253.383V55.8984C253.383 56.3984 253.523 56.7734 253.805 57.0234C254.094 57.2656 254.473 57.3867 254.941 57.3867ZM265.219 46.6289C266.977 46.6289 268.324 47.0117 269.262 47.7773C270.199 48.543 270.668 49.707 270.668 51.2695V60H268.172L267.48 58.2188H267.387C267.012 58.6875 266.629 59.0703 266.238 59.3672C265.848 59.6641 265.398 59.8828 264.891 60.0234C264.383 60.1641 263.766 60.2344 263.039 60.2344C262.266 60.2344 261.57 60.0859 260.953 59.7891C260.344 59.4922 259.863 59.0391 259.512 58.4297C259.16 57.8125 258.984 57.0312 258.984 56.0859C258.984 54.6953 259.473 53.6719 260.449 53.0156C261.426 52.3516 262.891 51.9844 264.844 51.9141L267.117 51.8438V51.2695C267.117 50.582 266.938 50.0781 266.578 49.7578C266.219 49.4375 265.719 49.2773 265.078 49.2773C264.445 49.2773 263.824 49.3672 263.215 49.5469C262.605 49.7266 261.996 49.9531 261.387 50.2266L260.203 47.8125C260.898 47.4453 261.676 47.1562 262.535 46.9453C263.402 46.7344 264.297 46.6289 265.219 46.6289ZM267.117 53.9297L265.734 53.9766C264.578 54.0078 263.773 54.2148 263.32 54.5977C262.875 54.9805 262.652 55.4844 262.652 56.1094C262.652 56.6562 262.812 57.0469 263.133 57.2812C263.453 57.5078 263.871 57.6211 264.387 57.6211C265.152 57.6211 265.797 57.3945 266.32 56.9414C266.852 56.4883 267.117 55.8438 267.117 55.0078V53.9297ZM281.672 46.6523C281.852 46.6523 282.059 46.6641 282.293 46.6875C282.535 46.7031 282.73 46.7266 282.879 46.7578L282.609 50.1094C282.492 50.0703 282.324 50.043 282.105 50.0273C281.895 50.0039 281.711 49.9922 281.555 49.9922C281.094 49.9922 280.645 50.0508 280.207 50.168C279.777 50.2852 279.391 50.4766 279.047 50.7422C278.703 51 278.43 51.3438 278.227 51.7734C278.031 52.1953 277.934 52.7148 277.934 53.332V60H274.359V46.8984H277.066L277.594 49.1016H277.77C278.027 48.6562 278.348 48.25 278.73 47.8828C279.121 47.5078 279.562 47.2109 280.055 46.9922C280.555 46.7656 281.094 46.6523 281.672 46.6523ZM290.777 57.3867C291.168 57.3867 291.547 57.3477 291.914 57.2695C292.289 57.1914 292.66 57.0938 293.027 56.9766V59.6367C292.645 59.8086 292.168 59.9492 291.598 60.0586C291.035 60.1758 290.418 60.2344 289.746 60.2344C288.965 60.2344 288.262 60.1094 287.637 59.8594C287.02 59.6016 286.531 59.1602 286.172 58.5352C285.82 57.9023 285.645 57.0234 285.645 55.8984V49.582H283.934V48.0703L285.902 46.875L286.934 44.1094H289.219V46.8984H292.887V49.582H289.219V55.8984C289.219 56.3984 289.359 56.7734 289.641 57.0234C289.93 57.2656 290.309 57.3867 290.777 57.3867Z" fill="white"/>
<path d="M252.148 173.867C253.703 173.867 254.984 174.055 255.992 174.43C257.008 174.805 257.762 175.371 258.254 176.129C258.746 176.887 258.992 177.844 258.992 179C258.992 179.781 258.844 180.465 258.547 181.051C258.25 181.637 257.859 182.133 257.375 182.539C256.891 182.945 256.367 183.277 255.805 183.535L260.844 191H256.812L252.723 184.426H250.789V191H247.156V173.867H252.148ZM251.891 176.844H250.789V181.473H251.961C253.164 181.473 254.023 181.273 254.539 180.875C255.062 180.469 255.324 179.875 255.324 179.094C255.324 178.281 255.043 177.703 254.48 177.359C253.926 177.016 253.062 176.844 251.891 176.844ZM268.121 177.652C269.332 177.652 270.375 177.887 271.25 178.355C272.125 178.816 272.801 179.488 273.277 180.371C273.754 181.254 273.992 182.332 273.992 183.605V185.34H265.543C265.582 186.348 265.883 187.141 266.445 187.719C267.016 188.289 267.805 188.574 268.812 188.574C269.648 188.574 270.414 188.488 271.109 188.316C271.805 188.145 272.52 187.887 273.254 187.543V190.309C272.605 190.629 271.926 190.863 271.215 191.012C270.512 191.16 269.656 191.234 268.648 191.234C267.336 191.234 266.172 190.992 265.156 190.508C264.148 190.023 263.355 189.285 262.777 188.293C262.207 187.301 261.922 186.051 261.922 184.543C261.922 183.012 262.18 181.738 262.695 180.723C263.219 179.699 263.945 178.934 264.875 178.426C265.805 177.91 266.887 177.652 268.121 177.652ZM268.145 180.195C267.449 180.195 266.871 180.418 266.41 180.863C265.957 181.309 265.695 182.008 265.625 182.961H270.641C270.633 182.43 270.535 181.957 270.348 181.543C270.168 181.129 269.895 180.801 269.527 180.559C269.168 180.316 268.707 180.195 268.145 180.195ZM280.73 196.766C278.902 196.766 277.504 196.445 276.535 195.805C275.574 195.172 275.094 194.281 275.094 193.133C275.094 192.344 275.34 191.684 275.832 191.152C276.324 190.621 277.047 190.242 278 190.016C277.633 189.859 277.312 189.605 277.039 189.254C276.766 188.895 276.629 188.516 276.629 188.117C276.629 187.617 276.773 187.203 277.062 186.875C277.352 186.539 277.77 186.211 278.316 185.891C277.629 185.594 277.082 185.117 276.676 184.461C276.277 183.805 276.078 183.031 276.078 182.141C276.078 181.188 276.285 180.379 276.699 179.715C277.121 179.043 277.73 178.531 278.527 178.18C279.332 177.828 280.309 177.652 281.457 177.652C281.699 177.652 281.98 177.668 282.301 177.699C282.621 177.73 282.914 177.766 283.18 177.805C283.453 177.844 283.637 177.875 283.73 177.898H288.301V179.715L286.25 180.242C286.438 180.531 286.578 180.84 286.672 181.168C286.766 181.496 286.812 181.844 286.812 182.211C286.812 183.617 286.32 184.715 285.336 185.504C284.359 186.285 283 186.676 281.258 186.676C280.844 186.652 280.453 186.621 280.086 186.582C279.906 186.723 279.77 186.871 279.676 187.027C279.582 187.184 279.535 187.348 279.535 187.52C279.535 187.691 279.605 187.836 279.746 187.953C279.895 188.062 280.113 188.148 280.402 188.211C280.699 188.266 281.066 188.293 281.504 188.293H283.73C285.168 188.293 286.262 188.602 287.012 189.219C287.77 189.836 288.148 190.742 288.148 191.938C288.148 193.469 287.508 194.656 286.227 195.5C284.953 196.344 283.121 196.766 280.73 196.766ZM280.883 194.434C281.734 194.434 282.465 194.352 283.074 194.188C283.691 194.031 284.164 193.805 284.492 193.508C284.82 193.219 284.984 192.871 284.984 192.465C284.984 192.137 284.887 191.875 284.691 191.68C284.504 191.492 284.215 191.359 283.824 191.281C283.441 191.203 282.949 191.164 282.348 191.164H280.496C280.059 191.164 279.664 191.234 279.312 191.375C278.969 191.516 278.695 191.711 278.492 191.961C278.289 192.219 278.188 192.516 278.188 192.852C278.188 193.344 278.422 193.73 278.891 194.012C279.367 194.293 280.031 194.434 280.883 194.434ZM281.457 184.496C282.129 184.496 282.621 184.289 282.934 183.875C283.246 183.461 283.402 182.898 283.402 182.188C283.402 181.398 283.238 180.809 282.91 180.418C282.59 180.02 282.105 179.82 281.457 179.82C280.801 179.82 280.309 180.02 279.98 180.418C279.652 180.809 279.488 181.398 279.488 182.188C279.488 182.898 279.648 183.461 279.969 183.875C280.297 184.289 280.793 184.496 281.457 184.496ZM294.043 177.898V191H290.469V177.898H294.043ZM292.262 172.766C292.793 172.766 293.25 172.891 293.633 173.141C294.016 173.383 294.207 173.84 294.207 174.512C294.207 175.176 294.016 175.637 293.633 175.895C293.25 176.145 292.793 176.27 292.262 176.27C291.723 176.27 291.262 176.145 290.879 175.895C290.504 175.637 290.316 175.176 290.316 174.512C290.316 173.84 290.504 173.383 290.879 173.141C291.262 172.891 291.723 172.766 292.262 172.766ZM306.945 187.109C306.945 188 306.734 188.754 306.312 189.371C305.898 189.98 305.277 190.445 304.449 190.766C303.621 191.078 302.59 191.234 301.355 191.234C300.441 191.234 299.656 191.176 299 191.059C298.352 190.941 297.695 190.746 297.031 190.473V187.52C297.742 187.84 298.504 188.105 299.316 188.316C300.137 188.52 300.855 188.621 301.473 188.621C302.168 188.621 302.664 188.52 302.961 188.316C303.266 188.105 303.418 187.832 303.418 187.496C303.418 187.277 303.355 187.082 303.23 186.91C303.113 186.73 302.855 186.531 302.457 186.312C302.059 186.086 301.434 185.793 300.582 185.434C299.762 185.09 299.086 184.742 298.555 184.391C298.031 184.039 297.641 183.625 297.383 183.148C297.133 182.664 297.008 182.051 297.008 181.309C297.008 180.098 297.477 179.188 298.414 178.578C299.359 177.961 300.621 177.652 302.199 177.652C303.012 177.652 303.785 177.734 304.52 177.898C305.262 178.062 306.023 178.324 306.805 178.684L305.727 181.262C305.078 180.98 304.465 180.75 303.887 180.57C303.316 180.391 302.734 180.301 302.141 180.301C301.617 180.301 301.223 180.371 300.957 180.512C300.691 180.652 300.559 180.867 300.559 181.156C300.559 181.367 300.625 181.555 300.758 181.719C300.898 181.883 301.164 182.066 301.555 182.27C301.953 182.465 302.535 182.719 303.301 183.031C304.043 183.336 304.688 183.656 305.234 183.992C305.781 184.32 306.203 184.73 306.5 185.223C306.797 185.707 306.945 186.336 306.945 187.109ZM315.254 188.387C315.645 188.387 316.023 188.348 316.391 188.27C316.766 188.191 317.137 188.094 317.504 187.977V190.637C317.121 190.809 316.645 190.949 316.074 191.059C315.512 191.176 314.895 191.234 314.223 191.234C313.441 191.234 312.738 191.109 312.113 190.859C311.496 190.602 311.008 190.16 310.648 189.535C310.297 188.902 310.121 188.023 310.121 186.898V180.582H308.41V179.07L310.379 177.875L311.41 175.109H313.695V177.898H317.363V180.582H313.695V186.898C313.695 187.398 313.836 187.773 314.117 188.023C314.406 188.266 314.785 188.387 315.254 188.387ZM327.477 177.652C327.656 177.652 327.863 177.664 328.098 177.688C328.34 177.703 328.535 177.727 328.684 177.758L328.414 181.109C328.297 181.07 328.129 181.043 327.91 181.027C327.699 181.004 327.516 180.992 327.359 180.992C326.898 180.992 326.449 181.051 326.012 181.168C325.582 181.285 325.195 181.477 324.852 181.742C324.508 182 324.234 182.344 324.031 182.773C323.836 183.195 323.738 183.715 323.738 184.332V191H320.164V177.898H322.871L323.398 180.102H323.574C323.832 179.656 324.152 179.25 324.535 178.883C324.926 178.508 325.367 178.211 325.859 177.992C326.359 177.766 326.898 177.652 327.477 177.652ZM336.43 177.629C338.188 177.629 339.535 178.012 340.473 178.777C341.41 179.543 341.879 180.707 341.879 182.27V191H339.383L338.691 189.219H338.598C338.223 189.688 337.84 190.07 337.449 190.367C337.059 190.664 336.609 190.883 336.102 191.023C335.594 191.164 334.977 191.234 334.25 191.234C333.477 191.234 332.781 191.086 332.164 190.789C331.555 190.492 331.074 190.039 330.723 189.43C330.371 188.812 330.195 188.031 330.195 187.086C330.195 185.695 330.684 184.672 331.66 184.016C332.637 183.352 334.102 182.984 336.055 182.914L338.328 182.844V182.27C338.328 181.582 338.148 181.078 337.789 180.758C337.43 180.438 336.93 180.277 336.289 180.277C335.656 180.277 335.035 180.367 334.426 180.547C333.816 180.727 333.207 180.953 332.598 181.227L331.414 178.812C332.109 178.445 332.887 178.156 333.746 177.945C334.613 177.734 335.508 177.629 336.43 177.629ZM338.328 184.93L336.945 184.977C335.789 185.008 334.984 185.215 334.531 185.598C334.086 185.98 333.863 186.484 333.863 187.109C333.863 187.656 334.023 188.047 334.344 188.281C334.664 188.508 335.082 188.621 335.598 188.621C336.363 188.621 337.008 188.395 337.531 187.941C338.062 187.488 338.328 186.844 338.328 186.008V184.93ZM351.09 188.387C351.48 188.387 351.859 188.348 352.227 188.27C352.602 188.191 352.973 188.094 353.34 187.977V190.637C352.957 190.809 352.48 190.949 351.91 191.059C351.348 191.176 350.73 191.234 350.059 191.234C349.277 191.234 348.574 191.109 347.949 190.859C347.332 190.602 346.844 190.16 346.484 189.535C346.133 188.902 345.957 188.023 345.957 186.898V180.582H344.246V179.07L346.215 177.875L347.246 175.109H349.531V177.898H353.199V180.582H349.531V186.898C349.531 187.398 349.672 187.773 349.953 188.023C350.242 188.266 350.621 188.387 351.09 188.387ZM359.574 177.898V191H356V177.898H359.574ZM357.793 172.766C358.324 172.766 358.781 172.891 359.164 173.141C359.547 173.383 359.738 173.84 359.738 174.512C359.738 175.176 359.547 175.637 359.164 175.895C358.781 176.145 358.324 176.27 357.793 176.27C357.254 176.27 356.793 176.145 356.41 175.895C356.035 175.637 355.848 175.176 355.848 174.512C355.848 173.84 356.035 173.383 356.41 173.141C356.793 172.891 357.254 172.766 357.793 172.766ZM375.242 184.426C375.242 185.52 375.094 186.488 374.797 187.332C374.508 188.176 374.082 188.891 373.52 189.477C372.965 190.055 372.293 190.492 371.504 190.789C370.723 191.086 369.84 191.234 368.855 191.234C367.934 191.234 367.086 191.086 366.312 190.789C365.547 190.492 364.879 190.055 364.309 189.477C363.746 188.891 363.309 188.176 362.996 187.332C362.691 186.488 362.539 185.52 362.539 184.426C362.539 182.973 362.797 181.742 363.312 180.734C363.828 179.727 364.562 178.961 365.516 178.438C366.469 177.914 367.605 177.652 368.926 177.652C370.152 177.652 371.238 177.914 372.184 178.438C373.137 178.961 373.883 179.727 374.422 180.734C374.969 181.742 375.242 182.973 375.242 184.426ZM366.184 184.426C366.184 185.285 366.277 186.008 366.465 186.594C366.652 187.18 366.945 187.621 367.344 187.918C367.742 188.215 368.262 188.363 368.902 188.363C369.535 188.363 370.047 188.215 370.438 187.918C370.836 187.621 371.125 187.18 371.305 186.594C371.492 186.008 371.586 185.285 371.586 184.426C371.586 183.559 371.492 182.84 371.305 182.27C371.125 181.691 370.836 181.258 370.438 180.969C370.039 180.68 369.52 180.535 368.879 180.535C367.934 180.535 367.246 180.859 366.816 181.508C366.395 182.156 366.184 183.129 366.184 184.426ZM385.637 177.652C387.035 177.652 388.16 178.035 389.012 178.801C389.863 179.559 390.289 180.777 390.289 182.457V191H386.715V183.348C386.715 182.41 386.543 181.703 386.199 181.227C385.863 180.75 385.332 180.512 384.605 180.512C383.512 180.512 382.766 180.883 382.367 181.625C381.969 182.367 381.77 183.438 381.77 184.836V191H378.195V177.898H380.926L381.406 179.574H381.605C381.887 179.121 382.234 178.754 382.648 178.473C383.07 178.191 383.535 177.984 384.043 177.852C384.559 177.719 385.09 177.652 385.637 177.652ZM410.352 191H400.484V173.867H410.352V176.844H404.117V180.605H409.918V183.582H404.117V188H410.352V191ZM421.098 177.652C422.496 177.652 423.621 178.035 424.473 178.801C425.324 179.559 425.75 180.777 425.75 182.457V191H422.176V183.348C422.176 182.41 422.004 181.703 421.66 181.227C421.324 180.75 420.793 180.512 420.066 180.512C418.973 180.512 418.227 180.883 417.828 181.625C417.43 182.367 417.23 183.438 417.23 184.836V191H413.656V177.898H416.387L416.867 179.574H417.066C417.348 179.121 417.695 178.754 418.109 178.473C418.531 178.191 418.996 177.984 419.504 177.852C420.02 177.719 420.551 177.652 421.098 177.652ZM433.578 191.234C432.117 191.234 430.926 190.664 430.004 189.523C429.09 188.375 428.633 186.691 428.633 184.473C428.633 182.23 429.098 180.535 430.027 179.387C430.957 178.23 432.172 177.652 433.672 177.652C434.297 177.652 434.848 177.738 435.324 177.91C435.801 178.082 436.211 178.312 436.555 178.602C436.906 178.891 437.203 179.215 437.445 179.574H437.562C437.516 179.324 437.457 178.957 437.387 178.473C437.324 177.98 437.293 177.477 437.293 176.961V172.766H440.879V191H438.137L437.445 189.301H437.293C437.066 189.66 436.781 189.988 436.438 190.285C436.102 190.574 435.699 190.805 435.23 190.977C434.762 191.148 434.211 191.234 433.578 191.234ZM434.832 188.387C435.809 188.387 436.496 188.098 436.895 187.52C437.301 186.934 437.516 186.055 437.539 184.883V184.496C437.539 183.223 437.344 182.25 436.953 181.578C436.562 180.898 435.836 180.559 434.773 180.559C433.984 180.559 433.367 180.898 432.922 181.578C432.477 182.258 432.254 183.238 432.254 184.52C432.254 185.801 432.477 186.766 432.922 187.414C433.375 188.062 434.012 188.387 434.832 188.387Z" fill="white"/>
<path d="M1098.71 53.4102C1098.71 54.7305 1098.54 55.9336 1098.21 57.0195C1097.89 58.0977 1097.39 59.0273 1096.71 59.8086C1096.05 60.5898 1095.21 61.1914 1094.18 61.6133C1093.16 62.0273 1091.95 62.2344 1090.55 62.2344C1089.15 62.2344 1087.94 62.0273 1086.92 61.6133C1085.89 61.1914 1085.05 60.5898 1084.38 59.8086C1083.71 59.0273 1083.21 58.0938 1082.89 57.0078C1082.56 55.9219 1082.39 54.7148 1082.39 53.3867C1082.39 51.6133 1082.68 50.0703 1083.26 48.7578C1083.85 47.4375 1084.75 46.4141 1085.96 45.6875C1087.17 44.9609 1088.71 44.5977 1090.57 44.5977C1092.43 44.5977 1093.96 44.9609 1095.16 45.6875C1096.36 46.4141 1097.25 47.4375 1097.83 48.7578C1098.41 50.0781 1098.71 51.6289 1098.71 53.4102ZM1086.2 53.4102C1086.2 54.6055 1086.35 55.6367 1086.65 56.5039C1086.95 57.3633 1087.43 58.0273 1088.07 58.4961C1088.71 58.957 1089.54 59.1875 1090.55 59.1875C1091.58 59.1875 1092.42 58.957 1093.06 58.4961C1093.7 58.0273 1094.16 57.3633 1094.45 56.5039C1094.75 55.6367 1094.9 54.6055 1094.9 53.4102C1094.9 51.6133 1094.56 50.1992 1093.89 49.168C1093.22 48.1367 1092.11 47.6211 1090.57 47.6211C1089.55 47.6211 1088.71 47.8555 1088.07 48.3242C1087.43 48.7852 1086.95 49.4492 1086.65 50.3164C1086.35 51.1758 1086.2 52.207 1086.2 53.4102ZM1109.22 51.582H1106.12V62H1102.55V51.582H1100.58V49.8594L1102.55 48.8984V47.9375C1102.55 46.8203 1102.74 45.9531 1103.11 45.3359C1103.5 44.7109 1104.03 44.2734 1104.72 44.0234C1105.41 43.7656 1106.23 43.6367 1107.18 43.6367C1107.88 43.6367 1108.51 43.6953 1109.08 43.8125C1109.65 43.9219 1110.11 44.0469 1110.47 44.1875L1109.56 46.8125C1109.29 46.7266 1108.99 46.6484 1108.67 46.5781C1108.35 46.5078 1107.98 46.4727 1107.57 46.4727C1107.07 46.4727 1106.7 46.625 1106.46 46.9297C1106.24 47.2266 1106.12 47.6094 1106.12 48.0781V48.8984H1109.22V51.582ZM1118.51 51.582H1115.42V62H1111.84V51.582H1109.88V49.8594L1111.84 48.8984V47.9375C1111.84 46.8203 1112.03 45.9531 1112.41 45.3359C1112.79 44.7109 1113.32 44.2734 1114.01 44.0234C1114.71 43.7656 1115.53 43.6367 1116.47 43.6367C1117.17 43.6367 1117.8 43.6953 1118.37 43.8125C1118.94 43.9219 1119.41 44.0469 1119.77 44.1875L1118.85 46.8125C1118.58 46.7266 1118.28 46.6484 1117.96 46.5781C1117.64 46.5078 1117.27 46.4727 1116.86 46.4727C1116.36 46.4727 1115.99 46.625 1115.76 46.9297C1115.53 47.2266 1115.42 47.6094 1115.42 48.0781V48.8984H1118.51V51.582ZM1124.12 62H1120.55V43.7656H1124.12V62ZM1131.45 48.8984V62H1127.88V48.8984H1131.45ZM1129.67 43.7656C1130.2 43.7656 1130.66 43.8906 1131.04 44.1406C1131.42 44.3828 1131.61 44.8398 1131.61 45.5117C1131.61 46.1758 1131.42 46.6367 1131.04 46.8945C1130.66 47.1445 1130.2 47.2695 1129.67 47.2695C1129.13 47.2695 1128.67 47.1445 1128.29 46.8945C1127.91 46.6367 1127.72 46.1758 1127.72 45.5117C1127.72 44.8398 1127.91 44.3828 1128.29 44.1406C1128.67 43.8906 1129.13 43.7656 1129.67 43.7656ZM1142.65 48.6523C1144.05 48.6523 1145.18 49.0352 1146.03 49.8008C1146.88 50.5586 1147.3 51.7773 1147.3 53.457V62H1143.73V54.3477C1143.73 53.4102 1143.56 52.7031 1143.21 52.2266C1142.88 51.75 1142.35 51.5117 1141.62 51.5117C1140.53 51.5117 1139.78 51.8828 1139.38 52.625C1138.98 53.3672 1138.79 54.4375 1138.79 55.8359V62H1135.21V48.8984H1137.94L1138.42 50.5742H1138.62C1138.9 50.1211 1139.25 49.7539 1139.66 49.4727C1140.09 49.1914 1140.55 48.9844 1141.06 48.8516C1141.57 48.7188 1142.11 48.6523 1142.65 48.6523ZM1156.39 48.6523C1157.6 48.6523 1158.64 48.8867 1159.52 49.3555C1160.39 49.8164 1161.07 50.4883 1161.54 51.3711C1162.02 52.2539 1162.26 53.332 1162.26 54.6055V56.3398H1153.81C1153.85 57.3477 1154.15 58.1406 1154.71 58.7188C1155.28 59.2891 1156.07 59.5742 1157.08 59.5742C1157.91 59.5742 1158.68 59.4883 1159.38 59.3164C1160.07 59.1445 1160.79 58.8867 1161.52 58.543V61.3086C1160.87 61.6289 1160.19 61.8633 1159.48 62.0117C1158.78 62.1602 1157.92 62.2344 1156.91 62.2344C1155.6 62.2344 1154.44 61.9922 1153.42 61.5078C1152.41 61.0234 1151.62 60.2852 1151.04 59.293C1150.47 58.3008 1150.19 57.0508 1150.19 55.543C1150.19 54.0117 1150.45 52.7383 1150.96 51.7227C1151.48 50.6992 1152.21 49.9336 1153.14 49.4258C1154.07 48.9102 1155.15 48.6523 1156.39 48.6523ZM1156.41 51.1953C1155.71 51.1953 1155.14 51.418 1154.68 51.8633C1154.22 52.3086 1153.96 53.0078 1153.89 53.9609H1158.91C1158.9 53.4297 1158.8 52.957 1158.61 52.543C1158.43 52.1289 1158.16 51.8008 1157.79 51.5586C1157.43 51.3164 1156.97 51.1953 1156.41 51.1953ZM1177.15 44.8672C1179.36 44.8672 1180.98 45.3438 1181.99 46.2969C1183.01 47.2422 1183.52 48.5469 1183.52 50.2109C1183.52 50.9609 1183.4 51.6797 1183.18 52.3672C1182.95 53.0469 1182.58 53.6523 1182.06 54.1836C1181.55 54.7148 1180.88 55.1367 1180.02 55.4492C1179.17 55.7539 1178.12 55.9062 1176.87 55.9062H1175.31V62H1171.68V44.8672H1177.15ZM1176.96 47.8438H1175.31V52.9297H1176.51C1177.19 52.9297 1177.78 52.8398 1178.28 52.6602C1178.78 52.4805 1179.16 52.1992 1179.44 51.8164C1179.71 51.4336 1179.85 50.9414 1179.85 50.3398C1179.85 49.4961 1179.61 48.8711 1179.14 48.4648C1178.68 48.0508 1177.95 47.8438 1176.96 47.8438ZM1190.04 48.8984V62H1186.47V48.8984H1190.04ZM1188.26 43.7656C1188.79 43.7656 1189.25 43.8906 1189.63 44.1406C1190.02 44.3828 1190.21 44.8398 1190.21 45.5117C1190.21 46.1758 1190.02 46.6367 1189.63 46.8945C1189.25 47.1445 1188.79 47.2695 1188.26 47.2695C1187.72 47.2695 1187.26 47.1445 1186.88 46.8945C1186.5 46.6367 1186.32 46.1758 1186.32 45.5117C1186.32 44.8398 1186.5 44.3828 1186.88 44.1406C1187.26 43.8906 1187.72 43.7656 1188.26 43.7656ZM1199.32 59.3867C1199.71 59.3867 1200.09 59.3477 1200.46 59.2695C1200.84 59.1914 1201.21 59.0938 1201.57 58.9766V61.6367C1201.19 61.8086 1200.71 61.9492 1200.14 62.0586C1199.58 62.1758 1198.96 62.2344 1198.29 62.2344C1197.51 62.2344 1196.81 62.1094 1196.18 61.8594C1195.57 61.6016 1195.08 61.1602 1194.72 60.5352C1194.37 59.9023 1194.19 59.0234 1194.19 57.8984V51.582H1192.48V50.0703L1194.45 48.875L1195.48 46.1094H1197.77V48.8984H1201.43V51.582H1197.77V57.8984C1197.77 58.3984 1197.91 58.7734 1198.19 59.0234C1198.48 59.2656 1198.86 59.3867 1199.32 59.3867ZM1209.55 62.2344C1208.26 62.2344 1207.15 62 1206.24 61.5312C1205.32 61.0547 1204.63 60.3203 1204.15 59.3281C1203.68 58.3359 1203.44 57.0664 1203.44 55.5195C1203.44 53.918 1203.71 52.6133 1204.25 51.6055C1204.79 50.5898 1205.55 49.8438 1206.51 49.3672C1207.48 48.8906 1208.6 48.6523 1209.87 48.6523C1210.78 48.6523 1211.56 48.7422 1212.21 48.9219C1212.88 49.0938 1213.46 49.3008 1213.95 49.543L1212.89 52.3086C1212.33 52.082 1211.81 51.8984 1211.32 51.7578C1210.84 51.6094 1210.36 51.5352 1209.87 51.5352C1209.25 51.5352 1208.73 51.6836 1208.31 51.9805C1207.9 52.2695 1207.59 52.707 1207.39 53.293C1207.18 53.8789 1207.08 54.6133 1207.08 55.4961C1207.08 56.3633 1207.19 57.082 1207.41 57.6523C1207.63 58.2227 1207.95 58.6484 1208.36 58.9297C1208.77 59.2031 1209.28 59.3398 1209.87 59.3398C1210.61 59.3398 1211.27 59.2422 1211.85 59.0469C1212.43 58.8438 1212.99 58.5625 1213.54 58.2031V61.2617C1212.99 61.6055 1212.42 61.8516 1211.82 62C1211.22 62.1562 1210.47 62.2344 1209.55 62.2344ZM1220.16 43.7656V47.4805C1220.16 48.1289 1220.14 48.7461 1220.09 49.332C1220.05 49.918 1220.02 50.332 1220 50.5742H1220.18C1220.46 50.1211 1220.8 49.7539 1221.18 49.4727C1221.57 49.1914 1222 48.9844 1222.47 48.8516C1222.94 48.7188 1223.44 48.6523 1223.98 48.6523C1224.93 48.6523 1225.75 48.8203 1226.45 49.1562C1227.16 49.4844 1227.7 50.0039 1228.09 50.7148C1228.48 51.418 1228.68 52.332 1228.68 53.457V62H1225.11V54.3477C1225.11 53.4102 1224.93 52.7031 1224.59 52.2266C1224.25 51.75 1223.71 51.5117 1223 51.5117C1222.28 51.5117 1221.71 51.6797 1221.3 52.0156C1220.88 52.3438 1220.59 52.832 1220.42 53.4805C1220.25 54.1211 1220.16 54.9062 1220.16 55.8359V62H1216.59V43.7656H1220.16ZM1235.93 48.8984V62H1232.36V48.8984H1235.93ZM1234.15 43.7656C1234.68 43.7656 1235.14 43.8906 1235.52 44.1406C1235.91 44.3828 1236.1 44.8398 1236.1 45.5117C1236.1 46.1758 1235.91 46.6367 1235.52 46.8945C1235.14 47.1445 1234.68 47.2695 1234.15 47.2695C1233.61 47.2695 1233.15 47.1445 1232.77 46.8945C1232.39 46.6367 1232.21 46.1758 1232.21 45.5117C1232.21 44.8398 1232.39 44.3828 1232.77 44.1406C1233.15 43.8906 1233.61 43.7656 1234.15 43.7656ZM1247.14 48.6523C1248.54 48.6523 1249.66 49.0352 1250.51 49.8008C1251.36 50.5586 1251.79 51.7773 1251.79 53.457V62H1248.21V54.3477C1248.21 53.4102 1248.04 52.7031 1247.7 52.2266C1247.36 51.75 1246.83 51.5117 1246.11 51.5117C1245.01 51.5117 1244.27 51.8828 1243.87 52.625C1243.47 53.3672 1243.27 54.4375 1243.27 55.8359V62H1239.7V48.8984H1242.43L1242.91 50.5742H1243.11C1243.39 50.1211 1243.73 49.7539 1244.15 49.4727C1244.57 49.1914 1245.04 48.9844 1245.54 48.8516C1246.06 48.7188 1246.59 48.6523 1247.14 48.6523ZM1259.3 67.7656C1257.47 67.7656 1256.07 67.4453 1255.11 66.8047C1254.14 66.1719 1253.66 65.2812 1253.66 64.1328C1253.66 63.3438 1253.91 62.6836 1254.4 62.1523C1254.89 61.6211 1255.62 61.2422 1256.57 61.0156C1256.2 60.8594 1255.88 60.6055 1255.61 60.2539C1255.34 59.8945 1255.2 59.5156 1255.2 59.1172C1255.2 58.6172 1255.34 58.2031 1255.63 57.875C1255.92 57.5391 1256.34 57.2109 1256.89 56.8906C1256.2 56.5938 1255.65 56.1172 1255.25 55.4609C1254.85 54.8047 1254.65 54.0312 1254.65 53.1406C1254.65 52.1875 1254.86 51.3789 1255.27 50.7148C1255.69 50.043 1256.3 49.5312 1257.1 49.1797C1257.9 48.8281 1258.88 48.6523 1260.03 48.6523C1260.27 48.6523 1260.55 48.668 1260.87 48.6992C1261.19 48.7305 1261.48 48.7656 1261.75 48.8047C1262.02 48.8438 1262.21 48.875 1262.3 48.8984H1266.87V50.7148L1264.82 51.2422C1265.01 51.5312 1265.15 51.8398 1265.24 52.168C1265.34 52.4961 1265.38 52.8438 1265.38 53.2109C1265.38 54.6172 1264.89 55.7148 1263.91 56.5039C1262.93 57.2852 1261.57 57.6758 1259.83 57.6758C1259.41 57.6523 1259.02 57.6211 1258.66 57.582C1258.48 57.7227 1258.34 57.8711 1258.25 58.0273C1258.15 58.1836 1258.11 58.3477 1258.11 58.5195C1258.11 58.6914 1258.18 58.8359 1258.32 58.9531C1258.46 59.0625 1258.68 59.1484 1258.97 59.2109C1259.27 59.2656 1259.64 59.293 1260.07 59.293H1262.3C1263.74 59.293 1264.83 59.6016 1265.58 60.2188C1266.34 60.8359 1266.72 61.7422 1266.72 62.9375C1266.72 64.4688 1266.08 65.6562 1264.8 66.5C1263.52 67.3438 1261.69 67.7656 1259.3 67.7656ZM1259.45 65.4336C1260.3 65.4336 1261.04 65.3516 1261.64 65.1875C1262.26 65.0312 1262.73 64.8047 1263.06 64.5078C1263.39 64.2188 1263.55 63.8711 1263.55 63.4648C1263.55 63.1367 1263.46 62.875 1263.26 62.6797C1263.07 62.4922 1262.79 62.3594 1262.39 62.2812C1262.01 62.2031 1261.52 62.1641 1260.92 62.1641H1259.07C1258.63 62.1641 1258.23 62.2344 1257.88 62.375C1257.54 62.5156 1257.27 62.7109 1257.06 62.9609C1256.86 63.2188 1256.76 63.5156 1256.76 63.8516C1256.76 64.3438 1256.99 64.7305 1257.46 65.0117C1257.94 65.293 1258.6 65.4336 1259.45 65.4336ZM1260.03 55.4961C1260.7 55.4961 1261.19 55.2891 1261.5 54.875C1261.82 54.4609 1261.97 53.8984 1261.97 53.1875C1261.97 52.3984 1261.81 51.8086 1261.48 51.418C1261.16 51.0195 1260.68 50.8203 1260.03 50.8203C1259.37 50.8203 1258.88 51.0195 1258.55 51.418C1258.22 51.8086 1258.06 52.3984 1258.06 53.1875C1258.06 53.8984 1258.22 54.4609 1258.54 54.875C1258.87 55.2891 1259.36 55.4961 1260.03 55.4961ZM1280.55 44.8672C1282.1 44.8672 1283.38 45.0547 1284.39 45.4297C1285.41 45.8047 1286.16 46.3711 1286.65 47.1289C1287.14 47.8867 1287.39 48.8438 1287.39 50C1287.39 50.7812 1287.24 51.4648 1286.95 52.0508C1286.65 52.6367 1286.26 53.1328 1285.77 53.5391C1285.29 53.9453 1284.77 54.2773 1284.2 54.5352L1289.24 62H1285.21L1281.12 55.4258H1279.19V62H1275.55V44.8672H1280.55ZM1280.29 47.8438H1279.19V52.4727H1280.36C1281.56 52.4727 1282.42 52.2734 1282.94 51.875C1283.46 51.4688 1283.72 50.875 1283.72 50.0938C1283.72 49.2812 1283.44 48.7031 1282.88 48.3594C1282.32 48.0156 1281.46 47.8438 1280.29 47.8438ZM1303.02 55.4258C1303.02 56.5195 1302.88 57.4883 1302.58 58.332C1302.29 59.1758 1301.86 59.8906 1301.3 60.4766C1300.75 61.0547 1300.07 61.4922 1299.29 61.7891C1298.5 62.0859 1297.62 62.2344 1296.64 62.2344C1295.71 62.2344 1294.87 62.0859 1294.09 61.7891C1293.33 61.4922 1292.66 61.0547 1292.09 60.4766C1291.53 59.8906 1291.09 59.1758 1290.78 58.332C1290.47 57.4883 1290.32 56.5195 1290.32 55.4258C1290.32 53.9727 1290.58 52.7422 1291.09 51.7344C1291.61 50.7266 1292.34 49.9609 1293.3 49.4375C1294.25 48.9141 1295.39 48.6523 1296.71 48.6523C1297.93 48.6523 1299.02 48.9141 1299.96 49.4375C1300.92 49.9609 1301.66 50.7266 1302.2 51.7344C1302.75 52.7422 1303.02 53.9727 1303.02 55.4258ZM1293.96 55.4258C1293.96 56.2852 1294.06 57.0078 1294.25 57.5938C1294.43 58.1797 1294.73 58.6211 1295.12 58.918C1295.52 59.2148 1296.04 59.3633 1296.68 59.3633C1297.32 59.3633 1297.83 59.2148 1298.22 58.918C1298.62 58.6211 1298.91 58.1797 1299.09 57.5938C1299.27 57.0078 1299.37 56.2852 1299.37 55.4258C1299.37 54.5586 1299.27 53.8398 1299.09 53.2695C1298.91 52.6914 1298.62 52.2578 1298.22 51.9688C1297.82 51.6797 1297.3 51.5352 1296.66 51.5352C1295.71 51.5352 1295.03 51.8594 1294.6 52.5078C1294.18 53.1562 1293.96 54.1289 1293.96 55.4258ZM1318 48.8984V62H1315.26L1314.78 60.3242H1314.59C1314.31 60.7695 1313.96 61.1328 1313.54 61.4141C1313.11 61.6953 1312.65 61.9023 1312.14 62.0352C1311.63 62.168 1311.11 62.2344 1310.56 62.2344C1309.62 62.2344 1308.8 62.0703 1308.11 61.7422C1307.41 61.4062 1306.87 60.8867 1306.48 60.1836C1306.1 59.4805 1305.91 58.5664 1305.91 57.4414V48.8984H1309.48V56.5508C1309.48 57.4883 1309.65 58.1953 1309.98 58.6719C1310.32 59.1484 1310.86 59.3867 1311.59 59.3867C1312.32 59.3867 1312.89 59.2227 1313.3 58.8945C1313.71 58.5586 1314 58.0703 1314.17 57.4297C1314.34 56.7812 1314.43 55.9922 1314.43 55.0625V48.8984H1318ZM1329.19 48.6523C1330.59 48.6523 1331.71 49.0352 1332.57 49.8008C1333.42 50.5586 1333.84 51.7773 1333.84 53.457V62H1330.27V54.3477C1330.27 53.4102 1330.1 52.7031 1329.75 52.2266C1329.42 51.75 1328.89 51.5117 1328.16 51.5117C1327.07 51.5117 1326.32 51.8828 1325.92 52.625C1325.52 53.3672 1325.32 54.4375 1325.32 55.8359V62H1321.75V48.8984H1324.48L1324.96 50.5742H1325.16C1325.44 50.1211 1325.79 49.7539 1326.2 49.4727C1326.62 49.1914 1327.09 48.9844 1327.6 48.8516C1328.11 48.7188 1328.64 48.6523 1329.19 48.6523ZM1341.67 62.2344C1340.21 62.2344 1339.02 61.6641 1338.1 60.5234C1337.18 59.375 1336.73 57.6914 1336.73 55.4727C1336.73 53.2305 1337.19 51.5352 1338.12 50.3867C1339.05 49.2305 1340.27 48.6523 1341.77 48.6523C1342.39 48.6523 1342.94 48.7383 1343.42 48.9102C1343.89 49.082 1344.3 49.3125 1344.65 49.6016C1345 49.8906 1345.3 50.2148 1345.54 50.5742H1345.66C1345.61 50.3242 1345.55 49.957 1345.48 49.4727C1345.42 48.9805 1345.39 48.4766 1345.39 47.9609V43.7656H1348.97V62H1346.23L1345.54 60.3008H1345.39C1345.16 60.6602 1344.88 60.9883 1344.53 61.2852C1344.2 61.5742 1343.79 61.8047 1343.32 61.9766C1342.86 62.1484 1342.3 62.2344 1341.67 62.2344ZM1342.93 59.3867C1343.9 59.3867 1344.59 59.0977 1344.99 58.5195C1345.39 57.9336 1345.61 57.0547 1345.63 55.8828V55.4961C1345.63 54.2227 1345.44 53.25 1345.05 52.5781C1344.66 51.8984 1343.93 51.5586 1342.87 51.5586C1342.08 51.5586 1341.46 51.8984 1341.02 52.5781C1340.57 53.2578 1340.35 54.2383 1340.35 55.5195C1340.35 56.8008 1340.57 57.7656 1341.02 58.4141C1341.47 59.0625 1342.11 59.3867 1342.93 59.3867Z" fill="white"/>
<path d="M776.27 179.242C776.27 180.258 776.023 181.141 775.531 181.891C775.039 182.641 774.32 183.219 773.375 183.625C772.438 184.031 771.297 184.234 769.953 184.234C769.359 184.234 768.777 184.195 768.207 184.117C767.645 184.039 767.102 183.926 766.578 183.777C766.062 183.621 765.57 183.43 765.102 183.203V179.828C765.914 180.188 766.758 180.512 767.633 180.801C768.508 181.09 769.375 181.234 770.234 181.234C770.828 181.234 771.305 181.156 771.664 181C772.031 180.844 772.297 180.629 772.461 180.355C772.625 180.082 772.707 179.77 772.707 179.418C772.707 178.988 772.562 178.621 772.273 178.316C771.984 178.012 771.586 177.727 771.078 177.461C770.578 177.195 770.012 176.91 769.379 176.605C768.98 176.418 768.547 176.191 768.078 175.926C767.609 175.652 767.164 175.32 766.742 174.93C766.32 174.539 765.973 174.066 765.699 173.512C765.434 172.949 765.301 172.277 765.301 171.496C765.301 170.473 765.535 169.598 766.004 168.871C766.473 168.145 767.141 167.59 768.008 167.207C768.883 166.816 769.914 166.621 771.102 166.621C771.992 166.621 772.84 166.727 773.645 166.938C774.457 167.141 775.305 167.438 776.188 167.828L775.016 170.652C774.227 170.332 773.52 170.086 772.895 169.914C772.27 169.734 771.633 169.645 770.984 169.645C770.531 169.645 770.145 169.719 769.824 169.867C769.504 170.008 769.262 170.211 769.098 170.477C768.934 170.734 768.852 171.035 768.852 171.379C768.852 171.785 768.969 172.129 769.203 172.41C769.445 172.684 769.805 172.949 770.281 173.207C770.766 173.465 771.367 173.766 772.086 174.109C772.961 174.523 773.707 174.957 774.324 175.41C774.949 175.855 775.43 176.383 775.766 176.992C776.102 177.594 776.27 178.344 776.27 179.242ZM782.668 165.766V169.48C782.668 170.129 782.645 170.746 782.598 171.332C782.559 171.918 782.527 172.332 782.504 172.574H782.691C782.973 172.121 783.305 171.754 783.688 171.473C784.078 171.191 784.508 170.984 784.977 170.852C785.445 170.719 785.949 170.652 786.488 170.652C787.434 170.652 788.258 170.82 788.961 171.156C789.664 171.484 790.211 172.004 790.602 172.715C790.992 173.418 791.188 174.332 791.188 175.457V184H787.613V176.348C787.613 175.41 787.441 174.703 787.098 174.227C786.754 173.75 786.223 173.512 785.504 173.512C784.785 173.512 784.219 173.68 783.805 174.016C783.391 174.344 783.098 174.832 782.926 175.48C782.754 176.121 782.668 176.906 782.668 177.836V184H779.094V165.766H782.668ZM806.773 177.426C806.773 178.52 806.625 179.488 806.328 180.332C806.039 181.176 805.613 181.891 805.051 182.477C804.496 183.055 803.824 183.492 803.035 183.789C802.254 184.086 801.371 184.234 800.387 184.234C799.465 184.234 798.617 184.086 797.844 183.789C797.078 183.492 796.41 183.055 795.84 182.477C795.277 181.891 794.84 181.176 794.527 180.332C794.223 179.488 794.07 178.52 794.07 177.426C794.07 175.973 794.328 174.742 794.844 173.734C795.359 172.727 796.094 171.961 797.047 171.438C798 170.914 799.137 170.652 800.457 170.652C801.684 170.652 802.77 170.914 803.715 171.438C804.668 171.961 805.414 172.727 805.953 173.734C806.5 174.742 806.773 175.973 806.773 177.426ZM797.715 177.426C797.715 178.285 797.809 179.008 797.996 179.594C798.184 180.18 798.477 180.621 798.875 180.918C799.273 181.215 799.793 181.363 800.434 181.363C801.066 181.363 801.578 181.215 801.969 180.918C802.367 180.621 802.656 180.18 802.836 179.594C803.023 179.008 803.117 178.285 803.117 177.426C803.117 176.559 803.023 175.84 802.836 175.27C802.656 174.691 802.367 174.258 801.969 173.969C801.57 173.68 801.051 173.535 800.41 173.535C799.465 173.535 798.777 173.859 798.348 174.508C797.926 175.156 797.715 176.129 797.715 177.426ZM817.039 170.652C817.219 170.652 817.426 170.664 817.66 170.688C817.902 170.703 818.098 170.727 818.246 170.758L817.977 174.109C817.859 174.07 817.691 174.043 817.473 174.027C817.262 174.004 817.078 173.992 816.922 173.992C816.461 173.992 816.012 174.051 815.574 174.168C815.145 174.285 814.758 174.477 814.414 174.742C814.07 175 813.797 175.344 813.594 175.773C813.398 176.195 813.301 176.715 813.301 177.332V184H809.727V170.898H812.434L812.961 173.102H813.137C813.395 172.656 813.715 172.25 814.098 171.883C814.488 171.508 814.93 171.211 815.422 170.992C815.922 170.766 816.461 170.652 817.039 170.652ZM826.145 181.387C826.535 181.387 826.914 181.348 827.281 181.27C827.656 181.191 828.027 181.094 828.395 180.977V183.637C828.012 183.809 827.535 183.949 826.965 184.059C826.402 184.176 825.785 184.234 825.113 184.234C824.332 184.234 823.629 184.109 823.004 183.859C822.387 183.602 821.898 183.16 821.539 182.535C821.188 181.902 821.012 181.023 821.012 179.898V173.582H819.301V172.07L821.27 170.875L822.301 168.109H824.586V170.898H828.254V173.582H824.586V179.898C824.586 180.398 824.727 180.773 825.008 181.023C825.297 181.266 825.676 181.387 826.145 181.387ZM834.629 184H831.055V165.766H834.629V184ZM841.965 170.898V184H838.391V170.898H841.965ZM840.184 165.766C840.715 165.766 841.172 165.891 841.555 166.141C841.938 166.383 842.129 166.84 842.129 167.512C842.129 168.176 841.938 168.637 841.555 168.895C841.172 169.145 840.715 169.27 840.184 169.27C839.645 169.27 839.184 169.145 838.801 168.895C838.426 168.637 838.238 168.176 838.238 167.512C838.238 166.84 838.426 166.383 838.801 166.141C839.184 165.891 839.645 165.766 840.184 165.766ZM854.867 180.109C854.867 181 854.656 181.754 854.234 182.371C853.82 182.98 853.199 183.445 852.371 183.766C851.543 184.078 850.512 184.234 849.277 184.234C848.363 184.234 847.578 184.176 846.922 184.059C846.273 183.941 845.617 183.746 844.953 183.473V180.52C845.664 180.84 846.426 181.105 847.238 181.316C848.059 181.52 848.777 181.621 849.395 181.621C850.09 181.621 850.586 181.52 850.883 181.316C851.188 181.105 851.34 180.832 851.34 180.496C851.34 180.277 851.277 180.082 851.152 179.91C851.035 179.73 850.777 179.531 850.379 179.312C849.98 179.086 849.355 178.793 848.504 178.434C847.684 178.09 847.008 177.742 846.477 177.391C845.953 177.039 845.562 176.625 845.305 176.148C845.055 175.664 844.93 175.051 844.93 174.309C844.93 173.098 845.398 172.188 846.336 171.578C847.281 170.961 848.543 170.652 850.121 170.652C850.934 170.652 851.707 170.734 852.441 170.898C853.184 171.062 853.945 171.324 854.727 171.684L853.648 174.262C853 173.98 852.387 173.75 851.809 173.57C851.238 173.391 850.656 173.301 850.062 173.301C849.539 173.301 849.145 173.371 848.879 173.512C848.613 173.652 848.48 173.867 848.48 174.156C848.48 174.367 848.547 174.555 848.68 174.719C848.82 174.883 849.086 175.066 849.477 175.27C849.875 175.465 850.457 175.719 851.223 176.031C851.965 176.336 852.609 176.656 853.156 176.992C853.703 177.32 854.125 177.73 854.422 178.223C854.719 178.707 854.867 179.336 854.867 180.109ZM863.176 181.387C863.566 181.387 863.945 181.348 864.312 181.27C864.688 181.191 865.059 181.094 865.426 180.977V183.637C865.043 183.809 864.566 183.949 863.996 184.059C863.434 184.176 862.816 184.234 862.145 184.234C861.363 184.234 860.66 184.109 860.035 183.859C859.418 183.602 858.93 183.16 858.57 182.535C858.219 181.902 858.043 181.023 858.043 179.898V173.582H856.332V172.07L858.301 170.875L859.332 168.109H861.617V170.898H865.285V173.582H861.617V179.898C861.617 180.398 861.758 180.773 862.039 181.023C862.328 181.266 862.707 181.387 863.176 181.387ZM871.66 170.898V184H868.086V170.898H871.66ZM869.879 165.766C870.41 165.766 870.867 165.891 871.25 166.141C871.633 166.383 871.824 166.84 871.824 167.512C871.824 168.176 871.633 168.637 871.25 168.895C870.867 169.145 870.41 169.27 869.879 169.27C869.34 169.27 868.879 169.145 868.496 168.895C868.121 168.637 867.934 168.176 867.934 167.512C867.934 166.84 868.121 166.383 868.496 166.141C868.879 165.891 869.34 165.766 869.879 165.766ZM882.863 170.652C884.262 170.652 885.387 171.035 886.238 171.801C887.09 172.559 887.516 173.777 887.516 175.457V184H883.941V176.348C883.941 175.41 883.77 174.703 883.426 174.227C883.09 173.75 882.559 173.512 881.832 173.512C880.738 173.512 879.992 173.883 879.594 174.625C879.195 175.367 878.996 176.438 878.996 177.836V184H875.422V170.898H878.152L878.633 172.574H878.832C879.113 172.121 879.461 171.754 879.875 171.473C880.297 171.191 880.762 170.984 881.27 170.852C881.785 170.719 882.316 170.652 882.863 170.652ZM895.027 189.766C893.199 189.766 891.801 189.445 890.832 188.805C889.871 188.172 889.391 187.281 889.391 186.133C889.391 185.344 889.637 184.684 890.129 184.152C890.621 183.621 891.344 183.242 892.297 183.016C891.93 182.859 891.609 182.605 891.336 182.254C891.062 181.895 890.926 181.516 890.926 181.117C890.926 180.617 891.07 180.203 891.359 179.875C891.648 179.539 892.066 179.211 892.613 178.891C891.926 178.594 891.379 178.117 890.973 177.461C890.574 176.805 890.375 176.031 890.375 175.141C890.375 174.188 890.582 173.379 890.996 172.715C891.418 172.043 892.027 171.531 892.824 171.18C893.629 170.828 894.605 170.652 895.754 170.652C895.996 170.652 896.277 170.668 896.598 170.699C896.918 170.73 897.211 170.766 897.477 170.805C897.75 170.844 897.934 170.875 898.027 170.898H902.598V172.715L900.547 173.242C900.734 173.531 900.875 173.84 900.969 174.168C901.062 174.496 901.109 174.844 901.109 175.211C901.109 176.617 900.617 177.715 899.633 178.504C898.656 179.285 897.297 179.676 895.555 179.676C895.141 179.652 894.75 179.621 894.383 179.582C894.203 179.723 894.066 179.871 893.973 180.027C893.879 180.184 893.832 180.348 893.832 180.52C893.832 180.691 893.902 180.836 894.043 180.953C894.191 181.062 894.41 181.148 894.699 181.211C894.996 181.266 895.363 181.293 895.801 181.293H898.027C899.465 181.293 900.559 181.602 901.309 182.219C902.066 182.836 902.445 183.742 902.445 184.938C902.445 186.469 901.805 187.656 900.523 188.5C899.25 189.344 897.418 189.766 895.027 189.766ZM895.18 187.434C896.031 187.434 896.762 187.352 897.371 187.188C897.988 187.031 898.461 186.805 898.789 186.508C899.117 186.219 899.281 185.871 899.281 185.465C899.281 185.137 899.184 184.875 898.988 184.68C898.801 184.492 898.512 184.359 898.121 184.281C897.738 184.203 897.246 184.164 896.645 184.164H894.793C894.355 184.164 893.961 184.234 893.609 184.375C893.266 184.516 892.992 184.711 892.789 184.961C892.586 185.219 892.484 185.516 892.484 185.852C892.484 186.344 892.719 186.73 893.188 187.012C893.664 187.293 894.328 187.434 895.18 187.434ZM895.754 177.496C896.426 177.496 896.918 177.289 897.23 176.875C897.543 176.461 897.699 175.898 897.699 175.188C897.699 174.398 897.535 173.809 897.207 173.418C896.887 173.02 896.402 172.82 895.754 172.82C895.098 172.82 894.605 173.02 894.277 173.418C893.949 173.809 893.785 174.398 893.785 175.188C893.785 175.898 893.945 176.461 894.266 176.875C894.594 177.289 895.09 177.496 895.754 177.496ZM916.273 166.867C917.828 166.867 919.109 167.055 920.117 167.43C921.133 167.805 921.887 168.371 922.379 169.129C922.871 169.887 923.117 170.844 923.117 172C923.117 172.781 922.969 173.465 922.672 174.051C922.375 174.637 921.984 175.133 921.5 175.539C921.016 175.945 920.492 176.277 919.93 176.535L924.969 184H920.938L916.848 177.426H914.914V184H911.281V166.867H916.273ZM916.016 169.844H914.914V174.473H916.086C917.289 174.473 918.148 174.273 918.664 173.875C919.188 173.469 919.449 172.875 919.449 172.094C919.449 171.281 919.168 170.703 918.605 170.359C918.051 170.016 917.188 169.844 916.016 169.844ZM932.246 170.652C933.457 170.652 934.5 170.887 935.375 171.355C936.25 171.816 936.926 172.488 937.402 173.371C937.879 174.254 938.117 175.332 938.117 176.605V178.34H929.668C929.707 179.348 930.008 180.141 930.57 180.719C931.141 181.289 931.93 181.574 932.938 181.574C933.773 181.574 934.539 181.488 935.234 181.316C935.93 181.145 936.645 180.887 937.379 180.543V183.309C936.73 183.629 936.051 183.863 935.34 184.012C934.637 184.16 933.781 184.234 932.773 184.234C931.461 184.234 930.297 183.992 929.281 183.508C928.273 183.023 927.48 182.285 926.902 181.293C926.332 180.301 926.047 179.051 926.047 177.543C926.047 176.012 926.305 174.738 926.82 173.723C927.344 172.699 928.07 171.934 929 171.426C929.93 170.91 931.012 170.652 932.246 170.652ZM932.27 173.195C931.574 173.195 930.996 173.418 930.535 173.863C930.082 174.309 929.82 175.008 929.75 175.961H934.766C934.758 175.43 934.66 174.957 934.473 174.543C934.293 174.129 934.02 173.801 933.652 173.559C933.293 173.316 932.832 173.195 932.27 173.195ZM950.164 180.109C950.164 181 949.953 181.754 949.531 182.371C949.117 182.98 948.496 183.445 947.668 183.766C946.84 184.078 945.809 184.234 944.574 184.234C943.66 184.234 942.875 184.176 942.219 184.059C941.57 183.941 940.914 183.746 940.25 183.473V180.52C940.961 180.84 941.723 181.105 942.535 181.316C943.355 181.52 944.074 181.621 944.691 181.621C945.387 181.621 945.883 181.52 946.18 181.316C946.484 181.105 946.637 180.832 946.637 180.496C946.637 180.277 946.574 180.082 946.449 179.91C946.332 179.73 946.074 179.531 945.676 179.312C945.277 179.086 944.652 178.793 943.801 178.434C942.98 178.09 942.305 177.742 941.773 177.391C941.25 177.039 940.859 176.625 940.602 176.148C940.352 175.664 940.227 175.051 940.227 174.309C940.227 173.098 940.695 172.188 941.633 171.578C942.578 170.961 943.84 170.652 945.418 170.652C946.23 170.652 947.004 170.734 947.738 170.898C948.48 171.062 949.242 171.324 950.023 171.684L948.945 174.262C948.297 173.98 947.684 173.75 947.105 173.57C946.535 173.391 945.953 173.301 945.359 173.301C944.836 173.301 944.441 173.371 944.176 173.512C943.91 173.652 943.777 173.867 943.777 174.156C943.777 174.367 943.844 174.555 943.977 174.719C944.117 174.883 944.383 175.066 944.773 175.27C945.172 175.465 945.754 175.719 946.52 176.031C947.262 176.336 947.906 176.656 948.453 176.992C949 177.32 949.422 177.73 949.719 178.223C950.016 178.707 950.164 179.336 950.164 180.109ZM964.977 170.898V184H962.234L961.754 182.324H961.566C961.285 182.77 960.934 183.133 960.512 183.414C960.09 183.695 959.625 183.902 959.117 184.035C958.609 184.168 958.082 184.234 957.535 184.234C956.598 184.234 955.781 184.07 955.086 183.742C954.391 183.406 953.848 182.887 953.457 182.184C953.074 181.48 952.883 180.566 952.883 179.441V170.898H956.457V178.551C956.457 179.488 956.625 180.195 956.961 180.672C957.297 181.148 957.832 181.387 958.566 181.387C959.293 181.387 959.863 181.223 960.277 180.895C960.691 180.559 960.98 180.07 961.145 179.43C961.316 178.781 961.402 177.992 961.402 177.062V170.898H964.977ZM972.301 184H968.727V165.766H972.301V184ZM981.582 181.387C981.973 181.387 982.352 181.348 982.719 181.27C983.094 181.191 983.465 181.094 983.832 180.977V183.637C983.449 183.809 982.973 183.949 982.402 184.059C981.84 184.176 981.223 184.234 980.551 184.234C979.77 184.234 979.066 184.109 978.441 183.859C977.824 183.602 977.336 183.16 976.977 182.535C976.625 181.902 976.449 181.023 976.449 179.898V173.582H974.738V172.07L976.707 170.875L977.738 168.109H980.023V170.898H983.691V173.582H980.023V179.898C980.023 180.398 980.164 180.773 980.445 181.023C980.734 181.266 981.113 181.387 981.582 181.387ZM995.633 180.109C995.633 181 995.422 181.754 995 182.371C994.586 182.98 993.965 183.445 993.137 183.766C992.309 184.078 991.277 184.234 990.043 184.234C989.129 184.234 988.344 184.176 987.688 184.059C987.039 183.941 986.383 183.746 985.719 183.473V180.52C986.43 180.84 987.191 181.105 988.004 181.316C988.824 181.52 989.543 181.621 990.16 181.621C990.855 181.621 991.352 181.52 991.648 181.316C991.953 181.105 992.105 180.832 992.105 180.496C992.105 180.277 992.043 180.082 991.918 179.91C991.801 179.73 991.543 179.531 991.145 179.312C990.746 179.086 990.121 178.793 989.27 178.434C988.449 178.09 987.773 177.742 987.242 177.391C986.719 177.039 986.328 176.625 986.07 176.148C985.82 175.664 985.695 175.051 985.695 174.309C985.695 173.098 986.164 172.188 987.102 171.578C988.047 170.961 989.309 170.652 990.887 170.652C991.699 170.652 992.473 170.734 993.207 170.898C993.949 171.062 994.711 171.324 995.492 171.684L994.414 174.262C993.766 173.98 993.152 173.75 992.574 173.57C992.004 173.391 991.422 173.301 990.828 173.301C990.305 173.301 989.91 173.371 989.645 173.512C989.379 173.652 989.246 173.867 989.246 174.156C989.246 174.367 989.312 174.555 989.445 174.719C989.586 174.883 989.852 175.066 990.242 175.27C990.641 175.465 991.223 175.719 991.988 176.031C992.73 176.336 993.375 176.656 993.922 176.992C994.469 177.32 994.891 177.73 995.188 178.223C995.484 178.707 995.633 179.336 995.633 180.109Z" fill="white"/>
<path d="M504.707 53.4102C504.707 54.7305 504.543 55.9336 504.215 57.0195C503.887 58.0977 503.387 59.0273 502.715 59.8086C502.051 60.5898 501.207 61.1914 500.184 61.6133C499.16 62.0273 497.949 62.2344 496.551 62.2344C495.152 62.2344 493.941 62.0273 492.918 61.6133C491.895 61.1914 491.047 60.5898 490.375 59.8086C489.711 59.0273 489.215 58.0938 488.887 57.0078C488.559 55.9219 488.395 54.7148 488.395 53.3867C488.395 51.6133 488.684 50.0703 489.262 48.7578C489.848 47.4375 490.746 46.4141 491.957 45.6875C493.168 44.9609 494.707 44.5977 496.574 44.5977C498.434 44.5977 499.961 44.9609 501.156 45.6875C502.359 46.4141 503.25 47.4375 503.828 48.7578C504.414 50.0781 504.707 51.6289 504.707 53.4102ZM492.203 53.4102C492.203 54.6055 492.352 55.6367 492.648 56.5039C492.953 57.3633 493.426 58.0273 494.066 58.4961C494.707 58.957 495.535 59.1875 496.551 59.1875C497.582 59.1875 498.418 58.957 499.059 58.4961C499.699 58.0273 500.164 57.3633 500.453 56.5039C500.75 55.6367 500.898 54.6055 500.898 53.4102C500.898 51.6133 500.562 50.1992 499.891 49.168C499.219 48.1367 498.113 47.6211 496.574 47.6211C495.551 47.6211 494.715 47.8555 494.066 48.3242C493.426 48.7852 492.953 49.4492 492.648 50.3164C492.352 51.1758 492.203 52.207 492.203 53.4102ZM515.418 48.6523C516.816 48.6523 517.941 49.0352 518.793 49.8008C519.645 50.5586 520.07 51.7773 520.07 53.457V62H516.496V54.3477C516.496 53.4102 516.324 52.7031 515.98 52.2266C515.645 51.75 515.113 51.5117 514.387 51.5117C513.293 51.5117 512.547 51.8828 512.148 52.625C511.75 53.3672 511.551 54.4375 511.551 55.8359V62H507.977V48.8984H510.707L511.188 50.5742H511.387C511.668 50.1211 512.016 49.7539 512.43 49.4727C512.852 49.1914 513.316 48.9844 513.824 48.8516C514.34 48.7188 514.871 48.6523 515.418 48.6523ZM527.324 62H523.75V43.7656H527.324V62ZM534.66 48.8984V62H531.086V48.8984H534.66ZM532.879 43.7656C533.41 43.7656 533.867 43.8906 534.25 44.1406C534.633 44.3828 534.824 44.8398 534.824 45.5117C534.824 46.1758 534.633 46.6367 534.25 46.8945C533.867 47.1445 533.41 47.2695 532.879 47.2695C532.34 47.2695 531.879 47.1445 531.496 46.8945C531.121 46.6367 530.934 46.1758 530.934 45.5117C530.934 44.8398 531.121 44.3828 531.496 44.1406C531.879 43.8906 532.34 43.7656 532.879 43.7656ZM545.863 48.6523C547.262 48.6523 548.387 49.0352 549.238 49.8008C550.09 50.5586 550.516 51.7773 550.516 53.457V62H546.941V54.3477C546.941 53.4102 546.77 52.7031 546.426 52.2266C546.09 51.75 545.559 51.5117 544.832 51.5117C543.738 51.5117 542.992 51.8828 542.594 52.625C542.195 53.3672 541.996 54.4375 541.996 55.8359V62H538.422V48.8984H541.152L541.633 50.5742H541.832C542.113 50.1211 542.461 49.7539 542.875 49.4727C543.297 49.1914 543.762 48.9844 544.27 48.8516C544.785 48.7188 545.316 48.6523 545.863 48.6523ZM559.598 48.6523C560.809 48.6523 561.852 48.8867 562.727 49.3555C563.602 49.8164 564.277 50.4883 564.754 51.3711C565.23 52.2539 565.469 53.332 565.469 54.6055V56.3398H557.02C557.059 57.3477 557.359 58.1406 557.922 58.7188C558.492 59.2891 559.281 59.5742 560.289 59.5742C561.125 59.5742 561.891 59.4883 562.586 59.3164C563.281 59.1445 563.996 58.8867 564.73 58.543V61.3086C564.082 61.6289 563.402 61.8633 562.691 62.0117C561.988 62.1602 561.133 62.2344 560.125 62.2344C558.812 62.2344 557.648 61.9922 556.633 61.5078C555.625 61.0234 554.832 60.2852 554.254 59.293C553.684 58.3008 553.398 57.0508 553.398 55.543C553.398 54.0117 553.656 52.7383 554.172 51.7227C554.695 50.6992 555.422 49.9336 556.352 49.4258C557.281 48.9102 558.363 48.6523 559.598 48.6523ZM559.621 51.1953C558.926 51.1953 558.348 51.418 557.887 51.8633C557.434 52.3086 557.172 53.0078 557.102 53.9609H562.117C562.109 53.4297 562.012 52.957 561.824 52.543C561.645 52.1289 561.371 51.8008 561.004 51.5586C560.645 51.3164 560.184 51.1953 559.621 51.1953ZM585.004 57.2422C585.004 58.2578 584.758 59.1406 584.266 59.8906C583.773 60.6406 583.055 61.2188 582.109 61.625C581.172 62.0312 580.031 62.2344 578.688 62.2344C578.094 62.2344 577.512 62.1953 576.941 62.1172C576.379 62.0391 575.836 61.9258 575.312 61.7773C574.797 61.6211 574.305 61.4297 573.836 61.2031V57.8281C574.648 58.1875 575.492 58.5117 576.367 58.8008C577.242 59.0898 578.109 59.2344 578.969 59.2344C579.562 59.2344 580.039 59.1562 580.398 59C580.766 58.8438 581.031 58.6289 581.195 58.3555C581.359 58.082 581.441 57.7695 581.441 57.418C581.441 56.9883 581.297 56.6211 581.008 56.3164C580.719 56.0117 580.32 55.7266 579.812 55.4609C579.312 55.1953 578.746 54.9102 578.113 54.6055C577.715 54.418 577.281 54.1914 576.812 53.9258C576.344 53.6523 575.898 53.3203 575.477 52.9297C575.055 52.5391 574.707 52.0664 574.434 51.5117C574.168 50.9492 574.035 50.2773 574.035 49.4961C574.035 48.4727 574.27 47.5977 574.738 46.8711C575.207 46.1445 575.875 45.5898 576.742 45.207C577.617 44.8164 578.648 44.6211 579.836 44.6211C580.727 44.6211 581.574 44.7266 582.379 44.9375C583.191 45.1406 584.039 45.4375 584.922 45.8281L583.75 48.6523C582.961 48.332 582.254 48.0859 581.629 47.9141C581.004 47.7344 580.367 47.6445 579.719 47.6445C579.266 47.6445 578.879 47.7188 578.559 47.8672C578.238 48.0078 577.996 48.2109 577.832 48.4766C577.668 48.7344 577.586 49.0352 577.586 49.3789C577.586 49.7852 577.703 50.1289 577.938 50.4102C578.18 50.6836 578.539 50.9492 579.016 51.207C579.5 51.4648 580.102 51.7656 580.82 52.1094C581.695 52.5234 582.441 52.957 583.059 53.4102C583.684 53.8555 584.164 54.3828 584.5 54.9922C584.836 55.5938 585.004 56.3438 585.004 57.2422ZM591.402 43.7656V47.4805C591.402 48.1289 591.379 48.7461 591.332 49.332C591.293 49.918 591.262 50.332 591.238 50.5742H591.426C591.707 50.1211 592.039 49.7539 592.422 49.4727C592.812 49.1914 593.242 48.9844 593.711 48.8516C594.18 48.7188 594.684 48.6523 595.223 48.6523C596.168 48.6523 596.992 48.8203 597.695 49.1562C598.398 49.4844 598.945 50.0039 599.336 50.7148C599.727 51.418 599.922 52.332 599.922 53.457V62H596.348V54.3477C596.348 53.4102 596.176 52.7031 595.832 52.2266C595.488 51.75 594.957 51.5117 594.238 51.5117C593.52 51.5117 592.953 51.6797 592.539 52.0156C592.125 52.3438 591.832 52.832 591.66 53.4805C591.488 54.1211 591.402 54.9062 591.402 55.8359V62H587.828V43.7656H591.402ZM615.508 55.4258C615.508 56.5195 615.359 57.4883 615.062 58.332C614.773 59.1758 614.348 59.8906 613.785 60.4766C613.23 61.0547 612.559 61.4922 611.77 61.7891C610.988 62.0859 610.105 62.2344 609.121 62.2344C608.199 62.2344 607.352 62.0859 606.578 61.7891C605.812 61.4922 605.145 61.0547 604.574 60.4766C604.012 59.8906 603.574 59.1758 603.262 58.332C602.957 57.4883 602.805 56.5195 602.805 55.4258C602.805 53.9727 603.062 52.7422 603.578 51.7344C604.094 50.7266 604.828 49.9609 605.781 49.4375C606.734 48.9141 607.871 48.6523 609.191 48.6523C610.418 48.6523 611.504 48.9141 612.449 49.4375C613.402 49.9609 614.148 50.7266 614.688 51.7344C615.234 52.7422 615.508 53.9727 615.508 55.4258ZM606.449 55.4258C606.449 56.2852 606.543 57.0078 606.73 57.5938C606.918 58.1797 607.211 58.6211 607.609 58.918C608.008 59.2148 608.527 59.3633 609.168 59.3633C609.801 59.3633 610.312 59.2148 610.703 58.918C611.102 58.6211 611.391 58.1797 611.57 57.5938C611.758 57.0078 611.852 56.2852 611.852 55.4258C611.852 54.5586 611.758 53.8398 611.57 53.2695C611.391 52.6914 611.102 52.2578 610.703 51.9688C610.305 51.6797 609.785 51.5352 609.145 51.5352C608.199 51.5352 607.512 51.8594 607.082 52.5078C606.66 53.1562 606.449 54.1289 606.449 55.4258ZM625.773 48.6523C625.953 48.6523 626.16 48.6641 626.395 48.6875C626.637 48.7031 626.832 48.7266 626.98 48.7578L626.711 52.1094C626.594 52.0703 626.426 52.043 626.207 52.0273C625.996 52.0039 625.812 51.9922 625.656 51.9922C625.195 51.9922 624.746 52.0508 624.309 52.168C623.879 52.2852 623.492 52.4766 623.148 52.7422C622.805 53 622.531 53.3438 622.328 53.7734C622.133 54.1953 622.035 54.7148 622.035 55.332V62H618.461V48.8984H621.168L621.695 51.1016H621.871C622.129 50.6562 622.449 50.25 622.832 49.8828C623.223 49.5078 623.664 49.2109 624.156 48.9922C624.656 48.7656 625.195 48.6523 625.773 48.6523ZM634.879 59.3867C635.27 59.3867 635.648 59.3477 636.016 59.2695C636.391 59.1914 636.762 59.0938 637.129 58.9766V61.6367C636.746 61.8086 636.27 61.9492 635.699 62.0586C635.137 62.1758 634.52 62.2344 633.848 62.2344C633.066 62.2344 632.363 62.1094 631.738 61.8594C631.121 61.6016 630.633 61.1602 630.273 60.5352C629.922 59.9023 629.746 59.0234 629.746 57.8984V51.582H628.035V50.0703L630.004 48.875L631.035 46.1094H633.32V48.8984H636.988V51.582H633.32V57.8984C633.32 58.3984 633.461 58.7734 633.742 59.0234C634.031 59.2656 634.41 59.3867 634.879 59.3867ZM643.363 62H639.789V43.7656H643.363V62ZM650.699 48.8984V62H647.125V48.8984H650.699ZM648.918 43.7656C649.449 43.7656 649.906 43.8906 650.289 44.1406C650.672 44.3828 650.863 44.8398 650.863 45.5117C650.863 46.1758 650.672 46.6367 650.289 46.8945C649.906 47.1445 649.449 47.2695 648.918 47.2695C648.379 47.2695 647.918 47.1445 647.535 46.8945C647.16 46.6367 646.973 46.1758 646.973 45.5117C646.973 44.8398 647.16 44.3828 647.535 44.1406C647.918 43.8906 648.379 43.7656 648.918 43.7656ZM663.602 58.1094C663.602 59 663.391 59.7539 662.969 60.3711C662.555 60.9805 661.934 61.4453 661.105 61.7656C660.277 62.0781 659.246 62.2344 658.012 62.2344C657.098 62.2344 656.312 62.1758 655.656 62.0586C655.008 61.9414 654.352 61.7461 653.688 61.4727V58.5195C654.398 58.8398 655.16 59.1055 655.973 59.3164C656.793 59.5195 657.512 59.6211 658.129 59.6211C658.824 59.6211 659.32 59.5195 659.617 59.3164C659.922 59.1055 660.074 58.832 660.074 58.4961C660.074 58.2773 660.012 58.082 659.887 57.9102C659.77 57.7305 659.512 57.5312 659.113 57.3125C658.715 57.0859 658.09 56.793 657.238 56.4336C656.418 56.0898 655.742 55.7422 655.211 55.3906C654.688 55.0391 654.297 54.625 654.039 54.1484C653.789 53.6641 653.664 53.0508 653.664 52.3086C653.664 51.0977 654.133 50.1875 655.07 49.5781C656.016 48.9609 657.277 48.6523 658.855 48.6523C659.668 48.6523 660.441 48.7344 661.176 48.8984C661.918 49.0625 662.68 49.3242 663.461 49.6836L662.383 52.2617C661.734 51.9805 661.121 51.75 660.543 51.5703C659.973 51.3906 659.391 51.3008 658.797 51.3008C658.273 51.3008 657.879 51.3711 657.613 51.5117C657.348 51.6523 657.215 51.8672 657.215 52.1562C657.215 52.3672 657.281 52.5547 657.414 52.7188C657.555 52.8828 657.82 53.0664 658.211 53.2695C658.609 53.4648 659.191 53.7188 659.957 54.0312C660.699 54.3359 661.344 54.6562 661.891 54.9922C662.438 55.3203 662.859 55.7305 663.156 56.2227C663.453 56.707 663.602 57.3359 663.602 58.1094ZM671.91 59.3867C672.301 59.3867 672.68 59.3477 673.047 59.2695C673.422 59.1914 673.793 59.0938 674.16 58.9766V61.6367C673.777 61.8086 673.301 61.9492 672.73 62.0586C672.168 62.1758 671.551 62.2344 670.879 62.2344C670.098 62.2344 669.395 62.1094 668.77 61.8594C668.152 61.6016 667.664 61.1602 667.305 60.5352C666.953 59.9023 666.777 59.0234 666.777 57.8984V51.582H665.066V50.0703L667.035 48.875L668.066 46.1094H670.352V48.8984H674.02V51.582H670.352V57.8984C670.352 58.3984 670.492 58.7734 670.773 59.0234C671.062 59.2656 671.441 59.3867 671.91 59.3867ZM680.395 48.8984V62H676.82V48.8984H680.395ZM678.613 43.7656C679.145 43.7656 679.602 43.8906 679.984 44.1406C680.367 44.3828 680.559 44.8398 680.559 45.5117C680.559 46.1758 680.367 46.6367 679.984 46.8945C679.602 47.1445 679.145 47.2695 678.613 47.2695C678.074 47.2695 677.613 47.1445 677.23 46.8945C676.855 46.6367 676.668 46.1758 676.668 45.5117C676.668 44.8398 676.855 44.3828 677.23 44.1406C677.613 43.8906 678.074 43.7656 678.613 43.7656ZM691.598 48.6523C692.996 48.6523 694.121 49.0352 694.973 49.8008C695.824 50.5586 696.25 51.7773 696.25 53.457V62H692.676V54.3477C692.676 53.4102 692.504 52.7031 692.16 52.2266C691.824 51.75 691.293 51.5117 690.566 51.5117C689.473 51.5117 688.727 51.8828 688.328 52.625C687.93 53.3672 687.73 54.4375 687.73 55.8359V62H684.156V48.8984H686.887L687.367 50.5742H687.566C687.848 50.1211 688.195 49.7539 688.609 49.4727C689.031 49.1914 689.496 48.9844 690.004 48.8516C690.52 48.7188 691.051 48.6523 691.598 48.6523ZM703.762 67.7656C701.934 67.7656 700.535 67.4453 699.566 66.8047C698.605 66.1719 698.125 65.2812 698.125 64.1328C698.125 63.3438 698.371 62.6836 698.863 62.1523C699.355 61.6211 700.078 61.2422 701.031 61.0156C700.664 60.8594 700.344 60.6055 700.07 60.2539C699.797 59.8945 699.66 59.5156 699.66 59.1172C699.66 58.6172 699.805 58.2031 700.094 57.875C700.383 57.5391 700.801 57.2109 701.348 56.8906C700.66 56.5938 700.113 56.1172 699.707 55.4609C699.309 54.8047 699.109 54.0312 699.109 53.1406C699.109 52.1875 699.316 51.3789 699.73 50.7148C700.152 50.043 700.762 49.5312 701.559 49.1797C702.363 48.8281 703.34 48.6523 704.488 48.6523C704.73 48.6523 705.012 48.668 705.332 48.6992C705.652 48.7305 705.945 48.7656 706.211 48.8047C706.484 48.8438 706.668 48.875 706.762 48.8984H711.332V50.7148L709.281 51.2422C709.469 51.5312 709.609 51.8398 709.703 52.168C709.797 52.4961 709.844 52.8438 709.844 53.2109C709.844 54.6172 709.352 55.7148 708.367 56.5039C707.391 57.2852 706.031 57.6758 704.289 57.6758C703.875 57.6523 703.484 57.6211 703.117 57.582C702.938 57.7227 702.801 57.8711 702.707 58.0273C702.613 58.1836 702.566 58.3477 702.566 58.5195C702.566 58.6914 702.637 58.8359 702.777 58.9531C702.926 59.0625 703.145 59.1484 703.434 59.2109C703.73 59.2656 704.098 59.293 704.535 59.293H706.762C708.199 59.293 709.293 59.6016 710.043 60.2188C710.801 60.8359 711.18 61.7422 711.18 62.9375C711.18 64.4688 710.539 65.6562 709.258 66.5C707.984 67.3438 706.152 67.7656 703.762 67.7656ZM703.914 65.4336C704.766 65.4336 705.496 65.3516 706.105 65.1875C706.723 65.0312 707.195 64.8047 707.523 64.5078C707.852 64.2188 708.016 63.8711 708.016 63.4648C708.016 63.1367 707.918 62.875 707.723 62.6797C707.535 62.4922 707.246 62.3594 706.855 62.2812C706.473 62.2031 705.98 62.1641 705.379 62.1641H703.527C703.09 62.1641 702.695 62.2344 702.344 62.375C702 62.5156 701.727 62.7109 701.523 62.9609C701.32 63.2188 701.219 63.5156 701.219 63.8516C701.219 64.3438 701.453 64.7305 701.922 65.0117C702.398 65.293 703.062 65.4336 703.914 65.4336ZM704.488 55.4961C705.16 55.4961 705.652 55.2891 705.965 54.875C706.277 54.4609 706.434 53.8984 706.434 53.1875C706.434 52.3984 706.27 51.8086 705.941 51.418C705.621 51.0195 705.137 50.8203 704.488 50.8203C703.832 50.8203 703.34 51.0195 703.012 51.418C702.684 51.8086 702.52 52.3984 702.52 53.1875C702.52 53.8984 702.68 54.4609 703 54.875C703.328 55.2891 703.824 55.4961 704.488 55.4961Z" fill="white"/>
<defs>
<linearGradient id="paint0_linear_0_1" x1="915" y1="116" x2="1790" y2="116" gradientUnits="userSpaceOnUse">
<stop stop-color="#FED988"/>
<stop offset="1" stop-color="#FED988" stop-opacity="0"/>
</linearGradient>
<linearGradient id="paint1_linear_0_1" x1="0" y1="149" x2="768" y2="149" gradientUnits="userSpaceOnUse">
<stop offset="0.58125" stop-color="#65989B"/>
<stop offset="1" stop-color="#1A2F32"/>
</linearGradient>
</defs>
</svg>
